<svg width="114" height="100" viewBox="0 0 114 100" fill="none" xmlns="http://www.w3.org/2000/svg">
<path d="M71.7575 66.6642L63.9738 92.5674C63.945 92.5916 63.8783 92.6402 63.7431 92.7043C63.4534 92.8415 62.9873 92.9822 62.3014 93.1032C60.9374 93.3439 58.9159 93.472 56.2032 93.472C53.4874 93.472 51.4844 93.3544 50.1596 93.1336C49.4906 93.0221 49.0567 92.8939 48.8056 92.7755C48.756 92.7521 48.7201 92.7324 48.6948 92.7171L32.5832 40.1629C32.4401 39.6959 31.9806 39.4007 31.4963 39.4646C31.0121 39.5285 30.6449 39.9328 30.6278 40.4209L28.8365 91.473C28.8216 91.6396 28.7124 91.9306 28.0715 92.2848C27.4108 92.6499 26.3522 92.9781 24.8239 93.2268C21.6975 93.6489 19.1047 93.856 17.0352 93.856C15.0315 93.856 13.0719 93.7309 11.156 93.4814C9.14823 93.1881 7.76128 92.7925 6.91277 92.3411C6.0673 91.8914 5.99025 91.532 6.00162 91.3275L6.00253 91.3074L8.94653 8.10736C8.94695 8.09558 8.94716 8.08379 8.94716 8.072C8.94716 8.07184 8.94715 8.0716 8.94713 8.07126C8.94653 8.05699 8.93904 7.87978 9.43141 7.58921C9.93744 7.29056 10.7832 6.99725 12.0442 6.74919C14.5484 6.25655 18.3734 6 23.5632 6C26.584 6 30.2978 6.25202 34.7125 6.76141L34.7314 6.76341C36.9157 6.97343 38.5482 7.29382 39.6707 7.70026C40.8308 8.12028 41.2137 8.54659 41.3125 8.80115L55.6449 49.111C55.7892 49.5168 56.177 49.7846 56.6076 49.7758C57.0382 49.767 57.4147 49.4835 57.5423 49.0722L70.0803 8.64363C70.1537 8.44557 70.3985 8.12438 71.1144 7.76643C71.8288 7.4092 72.8791 7.08398 74.3083 6.81471C77.1604 6.27737 81.3109 6 86.7952 6C89.9018 6 93.6154 6.2521 97.9423 6.76115L97.9634 6.76341C100.158 6.97444 101.72 7.27441 102.708 7.63526C103.204 7.81646 103.486 7.98878 103.629 8.11787C103.683 8.16675 103.706 8.19856 103.715 8.21458C103.715 8.22444 103.716 8.23431 103.716 8.24416L107.423 92.1019C107.421 92.1037 107.419 92.1057 107.417 92.1078C107.337 92.1858 107.155 92.313 106.8 92.4588C106.09 92.7498 104.946 93.0141 103.308 93.2241C100.01 93.6469 97.1099 93.856 94.6032 93.856C90.8239 93.856 88.0659 93.642 86.2784 93.2403C85.3776 93.0379 84.8059 92.8051 84.4822 92.5868C84.3268 92.4821 84.2596 92.4013 84.2331 92.3595C84.2124 92.327 84.2112 92.3121 84.2112 92.296C84.2112 92.2786 84.2107 92.2611 84.2098 92.2437L81.5218 40.9157C81.4964 40.4302 81.1254 40.0333 80.6427 39.9752C80.16 39.9171 79.7054 40.2146 79.5655 40.6802L71.7575 66.6642ZM48.6426 92.68C48.6429 92.6799 48.6462 92.6825 48.6514 92.688C48.6449 92.6828 48.6422 92.6801 48.6426 92.68ZM103.72 8.22694C103.72 8.22697 103.718 8.22372 103.717 8.21732C103.72 8.22374 103.721 8.2269 103.72 8.22694ZM34.7889 64.4163L43.8921 94.1101C44.4014 96.0889 46.0122 96.9864 46.6735 97.2981C47.5353 97.7044 48.4929 97.9248 49.3376 98.0656C51.0782 98.3557 53.4125 98.472 56.2032 98.472C59.0059 98.472 61.3728 98.3443 63.1703 98.0271L62.9965 97.0424L63.1703 98.0271C64.0536 97.8713 65.0156 97.6341 65.8835 97.223C66.6495 96.8601 68.1016 96.0019 68.7019 94.201L68.716 94.1585C68.7192 94.149 68.7222 94.1395 68.7251 94.13L77.732 64.1561L79.213 92.4352C79.2681 94.5557 80.5571 95.9708 81.6872 96.7327C82.765 97.4593 84.0382 97.8616 85.1822 98.1187C87.5256 98.6453 90.7333 98.856 94.6032 98.856C97.376 98.856 100.496 98.6256 103.944 98.1835C105.711 97.957 107.374 97.6275 108.697 97.0847C109.356 96.8146 110.187 96.39 110.907 95.6889C111.69 94.9258 112.427 93.7293 112.427 92.168V92.1017C112.427 92.087 112.427 92.0723 112.426 92.0576L108.714 8.07933C108.675 6.43243 107.847 5.19088 106.981 4.4085C106.166 3.67169 105.214 3.22762 104.424 2.93894C102.837 2.35927 100.782 2.0132 98.4849 1.7905C94.0496 1.26988 90.145 1 86.7952 1C81.2119 1 76.6943 1.27721 73.3826 1.90116C71.7391 2.2108 70.1803 2.64328 68.8783 3.29429C67.64 3.91343 66.0389 5.03283 65.3512 7.01956L65.3512 7.01967L65.3352 7.06578C65.3317 7.07599 65.3283 7.08625 65.3251 7.09657L56.3281 36.1074L46.0114 7.09172L46.0055 7.07554L45.9965 7.05151C45.9965 7.05149 45.9965 7.05147 45.9965 7.05144C45.0967 4.6521 42.8805 3.54477 41.3729 2.99894C39.6857 2.38805 37.5894 2.01699 35.2485 1.79007C30.7364 1.27043 26.831 1 23.5632 1C18.2955 1 14.0753 1.2538 11.0791 1.84322C9.61558 2.13112 8.11907 2.5579 6.89014 3.28317L7.3984 4.14438L6.89014 3.28317C5.67732 3.99893 3.98978 5.49302 3.94794 7.97918L1.00704 91.094C1.00693 91.0962 1.00682 91.0985 1.00671 91.1007C0.864794 94.1028 2.95525 95.8994 4.5647 96.7555C6.17956 97.6145 8.24863 98.1103 10.4419 98.4301L10.4422 98.4302L10.4646 98.4334L10.4791 98.4354L10.5015 98.4384L10.5018 98.4384C12.6418 98.7175 14.8201 98.856 17.0352 98.856C19.4117 98.856 22.2494 98.6202 25.5068 98.18L25.5461 98.1747C25.5548 98.1735 25.5636 98.1722 25.5723 98.1708L25.6114 98.1644L25.4514 97.1773L25.6114 98.1644C27.3644 97.8802 29.0869 97.4363 30.4899 96.661C31.9121 95.875 33.6565 94.3417 33.8263 91.7941L33.8294 91.7469C33.8301 91.7365 33.8307 91.726 33.831 91.7155L34.7889 64.4163Z" stroke="black" stroke-width="2" stroke-linejoin="round"/>
</svg>
